<svg width="20.000000" height="20.000000" viewBox="0 0 20 20" fill="none" xmlns="http://www.w3.org/2000/svg" xmlns:xlink="http://www.w3.org/1999/xlink">
	<desc>
			Created with Pixso.
	</desc>
	<defs>
		<clipPath id="clip217_1736">
			<rect id="clock" rx="0.000000" width="19.000000" height="19.000000" transform="translate(0.500000 0.500000)" fill="white" fill-opacity="0"/>
		</clipPath>
	</defs>
	<g clip-path="url(#clip217_1736)">
		<path id="Vector" d="M9.26 5.02L9.25 5C9.25 4.57 9.58 4.25 10 4.25C10.41 4.25 10.75 4.57 10.75 5L10.73 5.02L9.26 5.02ZM14.98 9.27L15 9.25C15.41 9.25 15.75 9.57 15.75 10C15.75 10.42 15.41 10.75 15 10.75L14.98 10.73L14.98 9.27Z" fill="#E1D4C9" fill-opacity="1.000000" fill-rule="nonzero"/>
		<path id="Vector" d="M10 5L10 10L15 10" stroke="#E1D4C9" stroke-opacity="1.000000" stroke-width="1.500000" stroke-linejoin="round" stroke-linecap="round"/>
		<path id="Vector" d="M10 18.33C5.39 18.33 1.66 14.6 1.66 9.99C1.66 5.39 5.39 1.66 10 1.66C14.6 1.66 18.33 5.39 18.33 9.99C18.33 14.6 14.6 18.33 10 18.33Z" stroke="#E1D4C9" stroke-opacity="1.000000" stroke-width="1.500000" stroke-linejoin="round"/>
	</g>
</svg>
