<svg width="60.000000" height="60.000000" viewBox="0 0 60 60" fill="none" xmlns="http://www.w3.org/2000/svg" xmlns:xlink="http://www.w3.org/1999/xlink">
	<desc>
			Created with Pixso.
	</desc>
	<defs>
		<clipPath id="clip10_3727">
			<rect id="facebook" rx="0.000000" width="23.000000" height="23.000000" transform="translate(18.500000 18.500000)" fill="white" fill-opacity="0"/>
		</clipPath>
	</defs>
	<g clip-path="url(#clip10_3727)">
		<path id="Vector" d="M32 20C30.67 20 29.4 20.52 28.46 21.46C27.52 22.4 27 23.67 27 25L27 28L24 28L24 32L27 32L27 40L31 40L31 32L34 32L35 28L31 28L31 25C31 24.73 31.1 24.48 31.29 24.29C31.48 24.1 31.73 24 32 24L35 24L35 20L32 20Z" stroke="#E1D4C9" stroke-opacity="1.000000" stroke-width="1.000000" stroke-linejoin="round"/>
	</g>
	<rect id="button-icon-light" rx="29.500000" width="59.000000" height="59.000000" transform="translate(0.500000 0.500000)" stroke="#C1B6AD" stroke-opacity="1.000000" stroke-width="1.000000"/>
</svg>
