<svg width="60.000000" height="60.000000" viewBox="0 0 60 60" fill="none" xmlns="http://www.w3.org/2000/svg" xmlns:xlink="http://www.w3.org/1999/xlink">
	<desc>
			Created with Pixso.
	</desc>
	<defs>
		<clipPath id="clip10_3706">
			<rect id="instagram" rx="0.000000" width="23.000000" height="23.000000" transform="translate(18.500000 18.500000)" fill="white" fill-opacity="0"/>
		</clipPath>
	</defs>
	<g clip-path="url(#clip10_3706)">
		<path id="Vector" d="M30 34C27.79 34 26 32.2 26 30C26 27.79 27.79 26 30 26C32.2 26 34 27.79 34 30C34 32.2 32.2 34 30 34Z" stroke="#E1D4C9" stroke-opacity="1.000000" stroke-width="1.000000" stroke-linejoin="round"/>
		<path id="Vector" d="M21 34C21 36.76 23.23 39 26 39L34 39C36.76 39 39 36.76 39 34L39 26C39 23.23 36.76 21 34 21L26 21C23.23 21 21 23.23 21 26L21 34Z" stroke="#E1D4C9" stroke-opacity="1.000000" stroke-width="1.000000"/>
		<path id="Vector" d="M35.5 24.5L35.5 24.5" stroke="#E1D4C9" stroke-opacity="1.000000" stroke-width="1.000000" stroke-linejoin="round" stroke-linecap="round"/>
	</g>
	<rect id="button-icon-light" rx="29.500000" width="59.000000" height="59.000000" transform="translate(0.500000 0.500000)" stroke="#C1B6AD" stroke-opacity="1.000000" stroke-width="1.000000"/>
</svg>
