<svg width="20.000000" height="20.000000" viewBox="0 0 20 20" fill="none" xmlns="http://www.w3.org/2000/svg" xmlns:xlink="http://www.w3.org/1999/xlink">
	<desc>
			Created with Pixso.
	</desc>
	<defs>
		<clipPath id="clip2_4205">
			<rect id="pin-alt" rx="0.000000" width="19.000000" height="19.000000" transform="translate(0.500000 0.500000)" fill="white" fill-opacity="0"/>
		</clipPath>
	</defs>
	<g clip-path="url(#clip2_4205)">
		<path id="Ellipse" d="M10 18.33C10 18.33 3.33 12.01 3.33 8.33C3.33 4.65 6.31 1.66 10 1.66C13.68 1.66 16.66 4.65 16.66 8.33C16.66 12.01 10 18.33 10 18.33Z" stroke="#E1D4C9" stroke-opacity="1.000000" stroke-width="1.500000"/>
		<path id="Vector" d="M10.83 8.33C10.83 8.79 10.46 9.16 10 9.16C9.54 9.16 9.16 8.79 9.16 8.33C9.16 7.87 9.54 7.5 10 7.5C10.46 7.5 10.83 7.87 10.83 8.33Z" fill="#E1D4C9" fill-opacity="1.000000" fill-rule="evenodd"/>
		<path id="Vector" d="M10 9.16C9.54 9.16 9.16 8.79 9.16 8.33C9.16 7.87 9.54 7.5 10 7.5C10.46 7.5 10.83 7.87 10.83 8.33C10.83 8.79 10.46 9.16 10 9.16Z" stroke="#E1D4C9" stroke-opacity="1.000000" stroke-width="1.500000" stroke-linejoin="round"/>
	</g>
</svg>
