<svg width="60.000000" height="60.000000" viewBox="0 0 60 60" fill="none" xmlns="http://www.w3.org/2000/svg" xmlns:xlink="http://www.w3.org/1999/xlink">
	<desc>
			Created with Pixso.
	</desc>
	<defs>
		<clipPath id="clip10_3689">
			<rect id="twitter" rx="0.000000" width="23.000000" height="23.000000" transform="translate(18.500000 18.500000)" fill="white" fill-opacity="0"/>
		</clipPath>
	</defs>
	<g clip-path="url(#clip10_3689)">
		<path id="Vector" d="M37.86 22.54C37.25 21.84 36.45 21.35 35.56 21.13C34.67 20.91 33.73 20.96 32.88 21.29C32.02 21.62 31.28 22.2 30.77 22.96C30.25 23.72 29.98 24.62 30 25.54L30 26.54C28.24 26.58 26.5 26.19 24.93 25.4C23.36 24.61 22.01 23.44 21 22.01C21 22.01 17 31.01 26 35C23.94 36.4 21.48 37.1 19 37C28 42.01 39 37 39 25.51C38.99 25.23 38.97 24.95 38.91 24.68C39.94 23.67 41 21.01 41 21.01C41 21.01 38.98 22.2 37.86 22.54Z" stroke="#E1D4C9" stroke-opacity="1.000000" stroke-width="1.000000" stroke-linejoin="round"/>
	</g>
	<rect id="button-icon-light" rx="29.500000" width="59.000000" height="59.000000" transform="translate(0.500000 0.500000)" stroke="#C1B6AD" stroke-opacity="1.000000" stroke-width="1.000000"/>
</svg>
